<svg width="25" height="24" viewBox="0 0 25 24" fill="none" xmlns="http://www.w3.org/2000/svg">
<path d="M19.4514 7.59898C19.4415 7.4083 19.3589 7.22866 19.2204 7.09717C19.082 6.96568 18.8983 6.89238 18.7074 6.8924H16.405V5.80488C16.3885 4.78096 15.9662 3.80546 15.2308 3.0928C14.4954 2.38013 13.5071 1.98864 12.4832 2.00436C11.4593 2.02008 10.4835 2.44174 9.77032 3.17664C9.05715 3.91154 8.66498 4.89955 8.68 5.9235V6.89249H6.37585C6.18466 6.89265 6.00084 6.96624 5.86236 7.09806C5.72389 7.22988 5.64134 7.40986 5.63177 7.60081L4.97774 21.2632C4.97791 21.4609 5.05636 21.6506 5.19594 21.7907C5.33553 21.9307 5.52489 22.0099 5.72265 22.0107H19.356L19.3863 22.0098C19.4844 22.0059 19.5808 21.9826 19.6698 21.9412C19.7589 21.8999 19.8389 21.8413 19.9052 21.769C19.9716 21.6966 20.0229 21.6118 20.0564 21.5195C20.0898 21.4272 20.1047 21.3291 20.1001 21.2311L19.4514 7.59898ZM10.169 5.92341C10.169 5.29423 10.4189 4.69083 10.8638 4.24593C11.3087 3.80104 11.9121 3.5511 12.5413 3.5511C13.1705 3.5511 13.7739 3.80104 14.2188 4.24593C14.6637 4.69083 14.9136 5.29423 14.9136 5.92341V6.8924H10.169V5.92341ZM6.50678 20.5222L7.08462 8.38084H8.67963V8.79143C8.67854 8.88989 8.69699 8.98759 8.73392 9.07888C8.77084 9.17016 8.82551 9.25321 8.89475 9.32322C8.96399 9.39323 9.04643 9.44881 9.1373 9.48675C9.22817 9.52468 9.32566 9.54421 9.42413 9.54421C9.52259 9.54421 9.62008 9.52468 9.71095 9.48675C9.80182 9.44881 9.88426 9.39323 9.9535 9.32322C10.0227 9.25321 10.0774 9.17016 10.1143 9.07888C10.1513 8.98759 10.1697 8.88989 10.1686 8.79143V8.38157H14.9132V8.79143C14.9135 8.98887 14.9921 9.17813 15.1318 9.31771C15.2714 9.45729 15.4607 9.53578 15.6581 9.53597H15.6608C15.7586 9.53608 15.8554 9.51689 15.9458 9.47951C16.0361 9.44212 16.1182 9.38728 16.1873 9.31811C16.2564 9.24895 16.3112 9.16682 16.3486 9.07645C16.3859 8.98607 16.405 8.88922 16.4049 8.79143V8.38157H17.9971L18.5745 20.5229L6.50678 20.5222Z" fill="#430707"/>
</svg>
