<svg width="25" height="24" viewBox="0 0 25 24" fill="none" xmlns="http://www.w3.org/2000/svg">
<path d="M22.5833 20.778L17.6377 15.8202C18.9211 14.1018 19.506 11.9611 19.275 9.82876C19.0439 7.69646 18.0139 5.73077 16.3921 4.32716C14.7704 2.92355 12.6773 2.18615 10.5339 2.26331C8.39052 2.34047 6.35587 3.22647 4.83927 4.74307C3.32268 6.25966 2.43668 8.29432 2.35952 10.4377C2.28235 12.5811 3.01975 14.6742 4.42337 16.2959C5.82698 17.9177 7.79266 18.9477 9.92496 19.1788C12.0573 19.4098 14.198 18.8249 15.9164 17.5415L20.8742 22.4871L22.5833 20.778ZM4.78873 10.7534C4.78873 9.55464 5.1442 8.38284 5.81017 7.38614C6.47614 6.38944 7.42271 5.61261 8.53019 5.15388C9.63766 4.69515 10.8563 4.57513 12.032 4.80899C13.2077 5.04284 14.2876 5.62008 15.1352 6.4677C15.9828 7.31533 16.5601 8.39526 16.7939 9.57095C17.0278 10.7466 16.9078 11.9653 16.449 13.0727C15.9903 14.1802 15.2135 15.1268 14.2168 15.7928C13.2201 16.4587 12.0483 16.8142 10.8496 16.8142C9.24213 16.8142 7.70054 16.1756 6.56391 15.039C5.42728 13.9024 4.78873 12.3608 4.78873 10.7534Z" fill="#430707"/>
</svg>
