<svg width="25" height="24" viewBox="0 0 25 24" fill="none" xmlns="http://www.w3.org/2000/svg">
<path d="M22.4391 19.6915C21.1537 17.4356 19.1466 15.6779 16.7409 14.7012C17.9373 13.804 18.8209 12.5531 19.2668 11.1257C19.7127 9.69827 19.6982 8.16677 19.2253 6.7481C18.7524 5.32942 17.8451 4.0955 16.632 3.22112C15.4188 2.34674 13.9613 1.87622 12.4659 1.87622C10.9705 1.87622 9.513 2.34674 8.29986 3.22112C7.08672 4.0955 6.17945 5.32942 5.70655 6.7481C5.23366 8.16677 5.21913 9.69827 5.66501 11.1257C6.1109 12.5531 6.99459 13.804 8.19092 14.7012C5.78523 15.6779 3.77815 17.4356 2.4928 19.6915C2.41315 19.8196 2.36007 19.9624 2.3367 20.1114C2.31334 20.2603 2.32017 20.4125 2.35679 20.5588C2.3934 20.7051 2.45906 20.8426 2.54986 20.963C2.64066 21.0834 2.75474 21.1843 2.88532 21.2598C3.01591 21.3352 3.16033 21.3836 3.31 21.4021C3.45967 21.4207 3.61153 21.4089 3.75657 21.3675C3.9016 21.3262 4.03684 21.2561 4.15424 21.1615C4.27165 21.0668 4.36882 20.9495 4.43999 20.8165C6.13874 17.8803 9.13874 16.129 12.4659 16.129C15.7931 16.129 18.7931 17.8812 20.4919 20.8165C20.6461 21.0645 20.8907 21.2428 21.174 21.3137C21.4573 21.3847 21.7571 21.3426 22.01 21.1965C22.2629 21.0504 22.449 20.8117 22.5291 20.5309C22.6091 20.25 22.5769 19.949 22.4391 19.6915ZM7.59092 9.00403C7.59092 8.03985 7.87684 7.09732 8.41251 6.29563C8.94818 5.49394 9.70955 4.8691 10.6003 4.50012C11.4911 4.13114 12.4713 4.0346 13.417 4.2227C14.3626 4.41081 15.2313 4.87511 15.9131 5.55689C16.5948 6.23867 17.0591 7.10731 17.2473 8.05297C17.4354 8.99862 17.3388 9.97882 16.9698 10.8696C16.6009 11.7604 15.976 12.5218 15.1743 13.0574C14.3726 13.5931 13.4301 13.879 12.4659 13.879C11.1735 13.8775 9.93434 13.3635 9.02042 12.4495C8.1065 11.5356 7.59241 10.2965 7.59092 9.00403Z" fill="#430707"/>
</svg>
